<svg version="1.1" id="Layer_1" xmlns="http://www.w3.org/2000/svg" xmlns:xlink="http://www.w3.org/1999/xlink" x="0px" y="0px"
	 width="100%" viewBox="0 0 1024 1024" enable-background="new 0 0 1024 1024" xml:space="preserve">
<path fill="#000000" opacity="1.000000" stroke="none" 
	d="
M632.673828,617.730530 
	C511.772247,695.653259 369.673920,635.508362 324.099762,532.054932 
	C325.599884,530.161621 327.766449,530.845337 329.637512,530.838135 
	C344.136169,530.782043 358.635376,530.872620 373.134125,530.829102 
	C379.669434,530.809509 383.600494,527.737366 383.773499,522.782227 
	C383.970734,517.133484 380.228790,513.340820 373.999695,513.310242 
	C357.001038,513.226746 339.995514,513.027405 323.006134,513.435059 
	C317.404541,513.569458 314.832672,511.562073 313.454803,506.455963 
	C311.513367,499.261292 309.049164,492.205048 307.863556,484.997803 
	C309.855133,483.116333 311.934021,483.698395 313.854706,483.653503 
	C317.186096,483.575562 320.532837,483.801239 323.850647,483.573090 
	C329.210693,483.204468 333.573364,478.980682 333.533905,474.505951 
	C333.494446,470.032654 329.116699,465.718658 323.792480,465.485809 
	C318.649597,465.260864 313.484009,465.574036 308.328094,465.620117 
	C305.434631,465.645966 303.941010,464.539429 303.490997,461.305267 
	C302.547943,454.526794 302.473480,447.702728 301.816681,440.917999 
	C301.443726,437.065308 302.891174,435.573547 306.883911,435.634094 
	C318.713776,435.813477 330.549896,435.785522 342.380493,435.619415 
	C347.665375,435.545197 351.659607,431.538300 351.602386,426.973358 
	C351.544434,422.349152 347.599487,418.607727 342.384460,418.308258 
	C340.556427,418.203278 338.719208,418.241699 336.886200,418.241333 
	C327.386597,418.239471 317.879669,418.025940 308.390503,418.342651 
	C303.624634,418.501709 302.206268,416.666046 302.655487,412.226837 
	C304.304443,395.930573 307.873993,380.070129 313.246979,364.613708 
	C314.722290,360.369690 316.619141,356.268066 318.004089,351.997833 
	C319.673218,346.851349 322.772003,344.796967 328.350616,344.858551 
	C348.013092,345.075653 367.680542,344.819031 387.346161,344.780731 
	C410.345215,344.735962 433.345428,344.843872 456.342407,344.611725 
	C460.742950,344.567291 462.943512,345.953613 464.310394,350.143188 
	C466.775482,357.698853 469.511841,365.159180 471.373901,372.409454 
	C470.496246,374.102722 469.421326,373.950073 468.450775,373.917877 
	C431.299255,372.686066 394.137634,373.689331 356.981995,373.405121 
	C356.482117,373.401276 355.981140,373.395691 355.482330,373.422211 
	C349.431213,373.743774 345.346405,377.082397 345.381165,381.671173 
	C345.418427,386.590302 350.100922,390.632233 355.988190,390.636261 
	C393.653442,390.662079 431.318726,390.648987 468.983978,390.652618 
	C477.124512,390.653381 477.180634,390.642731 479.618439,398.223267 
	C486.241058,418.816864 492.811188,439.427338 499.403442,460.030701 
	C499.958527,461.765564 500.722046,463.461853 500.358673,465.453339 
	C498.647491,466.880066 496.580872,466.196594 494.675262,466.195160 
	C454.844177,466.165070 415.013153,466.090881 375.182098,466.032013 
	C373.515869,466.029572 371.846161,466.034332 370.183990,466.134155 
	C364.656036,466.466187 361.311005,469.558167 361.339874,474.250031 
	C361.368195,478.852753 365.339813,483.232971 370.072540,483.568695 
	C373.223969,483.792267 376.402466,483.633362 379.568848,483.646729 
	C410.900269,483.779022 442.240295,483.495361 473.561127,484.141724 
	C520.221741,485.104645 566.879639,484.319733 613.537048,484.664429 
	C622.662598,484.731842 627.648071,481.199158 630.722656,472.401886 
	C638.028687,451.497559 645.231079,430.557007 652.497070,409.638672 
	C654.682739,403.346252 656.910339,397.068024 659.170837,390.802124 
	C663.832336,377.880585 658.532715,370.360199 644.628052,370.365082 
	C594.964417,370.382538 545.300659,370.388397 495.637543,370.570404 
	C491.463928,370.585693 489.340698,369.541840 488.221222,365.302582 
	C486.396393,358.392334 483.933350,351.647705 481.664246,344.858398 
	C477.563446,332.588776 470.460785,327.408539 457.467957,327.394897 
	C417.969513,327.353424 378.470978,327.386932 338.972534,327.349731 
	C336.685638,327.347595 334.317413,327.804504 331.995667,326.718872 
	C331.608368,323.752838 333.516846,321.663208 334.929016,319.547607 
	C370.136139,266.804016 418.770416,234.527664 481.389465,223.581253 
	C565.326904,208.908173 654.078674,250.299133 697.887939,323.085052 
	C714.507629,350.697479 724.935852,380.471405 728.392883,412.603882 
	C734.784729,472.014465 718.414246,524.914734 682.362061,571.988037 
	C668.591064,589.968811 651.727051,604.831299 632.673828,617.730530 
M456.500000,532.808167 
	C497.968994,532.874023 539.437988,532.952942 580.906982,532.995300 
	C589.730652,533.004333 598.561523,533.072449 607.375610,532.747742 
	C612.927368,532.543274 617.528687,528.022095 617.516968,523.550110 
	C617.504395,518.754517 612.677124,514.549988 606.898987,514.331360 
	C605.401855,514.274658 603.901611,514.290527 602.402771,514.290833 
	C573.424377,514.296509 544.446045,514.309326 515.467651,514.311340 
	C482.492371,514.313721 449.517059,514.282227 416.541840,514.328064 
	C410.904266,514.335876 407.454742,517.230652 407.082123,521.844788 
	C406.668793,526.962891 410.370789,531.725037 415.539734,532.566223 
	C417.006409,532.804932 418.529266,532.739685 420.026520,532.743530 
	C431.850983,532.773865 443.675507,532.787292 456.500000,532.808167 
M631.439331,577.786865 
	C634.997620,565.225342 630.370361,553.054321 619.297424,546.366150 
	C609.670959,540.551697 599.948181,540.929626 590.605713,546.922180 
	C582.197083,552.315796 578.268188,560.726990 578.695862,570.279419 
	C579.312195,584.046326 589.503113,593.930725 603.870850,596.342651 
	C613.996094,598.042480 626.191589,590.068787 631.439331,577.786865 
M516.835388,567.711121 
	C515.726379,553.040344 503.739563,541.987183 489.343842,542.360962 
	C475.494537,542.720520 463.521729,554.625854 463.352173,568.206238 
	C463.162292,583.409302 475.691406,597.005615 490.335419,596.404419 
	C508.500244,595.658691 517.936707,581.221802 516.835388,567.711121 
M429.499451,418.363678 
	C416.666290,418.370819 403.832306,418.292511 391.000366,418.422363 
	C384.886414,418.484192 380.733276,421.993225 380.812927,426.548920 
	C380.905792,431.863617 385.051208,435.796143 391.150208,435.836212 
	C409.315643,435.955627 427.482605,435.983154 445.648102,435.887604 
	C451.838104,435.855042 455.800476,432.162018 455.670197,427.135742 
	C455.536865,421.990112 451.604706,418.524689 445.498169,418.387207 
	C440.500793,418.274689 435.498840,418.363678 429.499451,418.363678 
z"/>
<path fill="#000000" opacity="1.000000" stroke="none" 
	d="
M612.542603,713.750061 
	C623.218384,693.290833 639.282776,681.726318 662.483215,681.775146 
	C675.046082,681.801575 686.276062,686.013794 695.819763,694.372070 
	C698.096313,696.365845 700.105225,698.565186 701.351685,701.359558 
	C703.346985,705.833008 702.252197,710.304321 698.426880,713.454285 
	C694.569031,716.630981 689.372375,716.898438 685.613037,713.696167 
	C679.026672,708.085693 672.122925,703.406921 663.005493,703.339661 
	C644.277893,703.201599 630.483826,716.718323 630.213257,735.551941 
	C629.973938,752.206848 640.224121,765.716003 655.772461,769.205017 
	C670.444824,772.497375 684.824158,762.124146 687.332336,751.890564 
	C682.082458,750.833069 676.805969,751.525513 671.597107,751.391357 
	C664.483582,751.208130 660.529968,747.217651 660.712891,740.192261 
	C660.861938,734.468750 663.805298,730.938965 669.541138,730.806458 
	C680.861023,730.544861 692.197998,730.495117 703.514526,730.821716 
	C710.056335,731.010681 712.788330,735.541199 712.252625,743.858337 
	C710.825745,766.014954 695.396179,784.555786 673.647888,789.225220 
	C632.272339,798.108765 604.730713,765.069275 607.743652,732.388428 
	C608.324951,726.083618 609.805969,719.933350 612.542603,713.750061 
z"/>
<path fill="#000000" opacity="1.000000" stroke="none" 
	d="
M249.096069,790.338623 
	C237.519333,790.096802 227.852371,786.188843 219.484512,778.961243 
	C217.041321,776.850952 215.214310,774.356506 214.288406,771.191345 
	C212.762115,765.973816 214.486481,760.691345 218.733322,758.007446 
	C223.377167,755.072632 227.289169,755.392090 231.666626,760.007568 
	C238.405182,767.112732 246.205475,770.918396 256.158508,769.737366 
	C259.223938,769.373596 262.017395,768.448059 264.442169,766.581543 
	C269.359436,762.796631 269.202393,756.693848 264.004242,753.296265 
	C259.500488,750.352478 254.266113,749.035156 249.270645,747.218140 
	C242.856506,744.885254 236.469040,742.538025 230.310638,739.538513 
	C208.866501,729.094055 209.484268,700.236023 228.780212,688.010437 
	C243.700134,678.557556 266.872162,680.301758 280.211395,691.904053 
	C285.987396,696.927856 286.727570,703.857971 282.046967,709.089600 
	C278.317230,713.258423 273.257965,713.965698 268.727753,710.696594 
	C263.979553,707.270325 259.255402,703.940063 253.323669,702.788696 
	C249.776474,702.100098 246.393692,702.277649 243.038254,703.587097 
	C239.596664,704.930176 236.827805,706.900452 236.371063,710.901367 
	C235.891663,715.100830 238.149200,717.904602 241.487488,719.888123 
	C247.119385,723.234375 253.498779,724.744263 259.596832,726.936523 
	C266.811798,729.530212 274.198639,731.881348 280.152710,736.919434 
	C294.540802,749.094055 292.978729,771.683228 277.038727,783.059753 
	C268.826294,788.921143 259.494324,790.797058 249.096069,790.338623 
z"/>
<path fill="#000000" opacity="1.000000" stroke="none" 
	d="
M519.971619,763.556396 
	C515.656250,777.071228 507.637360,786.261475 493.772491,789.554871 
	C482.202667,792.303162 473.671692,788.030762 467.266724,777.459900 
	C467.266724,785.279419 467.296326,792.199707 467.246674,799.119568 
	C467.233612,800.939270 467.190247,802.806213 466.789551,804.566956 
	C465.526550,810.117065 460.763092,813.580872 455.479889,812.986450 
	C450.014923,812.371582 446.745026,808.751648 446.711121,802.686279 
	C446.623657,787.035400 446.713470,771.383667 446.718292,755.732239 
	C446.721161,746.407959 446.659729,737.083496 446.697815,727.759460 
	C446.725647,720.948730 449.957275,716.819336 455.752899,715.985229 
	C461.216553,715.198853 466.142914,719.058350 467.853027,725.772278 
	C475.840179,715.646545 486.204376,713.279480 497.731079,717.263428 
	C510.269196,721.596985 517.017395,731.454834 520.216187,743.919434 
	C521.854065,750.301758 521.813477,756.756775 519.971619,763.556396 
M468.578552,756.529114 
	C470.439301,760.730347 473.143677,764.259644 476.973663,766.842896 
	C480.569366,769.268005 484.348541,770.499817 488.741180,768.947937 
	C497.203644,765.958252 501.696747,757.569214 499.521973,748.529480 
	C497.782684,741.299866 489.241943,735.126526 482.627563,736.641846 
	C472.216156,739.027039 466.412079,747.733948 468.578552,756.529114 
z"/>
<path fill="#000000" opacity="1.000000" stroke="none" 
	d="
M296.679749,719.999878 
	C296.679016,709.168457 296.639191,698.836853 296.691162,688.505676 
	C296.727814,681.217773 300.043030,677.691650 306.706512,677.656006 
	C313.867767,677.617676 317.120392,680.825562 317.377747,688.382935 
	C317.700897,697.871826 317.912506,707.364624 318.198975,716.854858 
	C318.237244,718.121582 318.432007,719.383484 318.628784,721.417297 
	C325.697174,715.938293 333.267914,714.525391 341.206665,716.026367 
	C353.755005,718.398865 362.837585,729.581848 363.234772,743.405151 
	C363.588776,755.726135 363.412811,768.065674 363.297241,780.395386 
	C363.244995,785.969299 358.478333,790.175415 352.723907,790.155029 
	C347.104767,790.135132 342.834595,786.235229 342.738922,780.475159 
	C342.567444,770.146729 342.746674,759.812988 342.679169,749.482178 
	C342.627808,741.617798 338.051025,736.452026 331.292236,736.412292 
	C323.794952,736.368225 318.103027,741.877197 317.993774,749.516541 
	C317.879395,757.513000 317.993744,765.512573 317.935852,773.510254 
	C317.919006,775.834717 317.781586,778.174255 317.478912,780.477905 
	C316.638092,786.876770 312.366547,790.565186 306.406097,790.183105 
	C300.722687,789.818787 296.845306,785.804871 296.754456,779.487915 
	C296.577148,767.159424 296.686737,754.826721 296.680786,742.495789 
	C296.677277,735.163818 296.679962,727.831909 296.679749,719.999878 
z"/>
<path fill="#000000" opacity="1.000000" stroke="none" 
	d="
M724.038086,775.906494 
	C714.346375,763.173218 713.899536,749.577393 720.565308,736.190247 
	C727.212524,722.840210 738.615295,715.443481 753.937378,715.742249 
	C768.226746,716.020935 778.574890,723.369690 785.121521,735.665588 
	C791.431396,747.516724 790.954346,759.599426 784.331543,771.402344 
	C771.794617,793.745300 740.361450,796.992615 724.038086,775.906494 
M761.040894,739.369934 
	C751.267944,733.079285 740.203735,738.747131 737.753113,748.481934 
	C735.982056,755.517273 739.274658,763.983765 745.453186,767.488892 
	C751.158813,770.725708 758.784180,769.598450 763.315979,764.931885 
	C769.974854,758.075134 769.762756,745.222595 761.040894,739.369934 
z"/>
<path fill="#000000" opacity="1.000000" stroke="none" 
	d="
M436.959778,772.798645 
	C428.952271,784.888245 417.952026,791.059692 403.861298,790.087646 
	C389.609222,789.104431 379.284515,781.498169 373.098755,768.601562 
	C366.344971,754.520569 369.740387,737.567871 381.439880,725.905823 
	C391.613525,715.764771 408.302185,712.833313 421.184265,718.924438 
	C441.107117,728.344971 448.275024,752.388245 436.959778,772.798645 
M396.194672,765.330383 
	C403.352936,771.294739 412.379120,770.842834 417.827606,764.247375 
	C423.789520,757.030334 422.639557,746.074036 415.305206,740.216064 
	C408.371643,734.678162 399.536743,735.842346 393.859711,743.041992 
	C388.826630,749.424805 389.480835,757.150330 396.194672,765.330383 
z"/>
<path fill="#000000" opacity="1.000000" stroke="none" 
	d="
M576.871887,388.950958 
	C585.935486,389.002655 585.941711,389.003876 584.358154,397.145935 
	C583.312561,402.522247 582.188293,407.884003 581.209656,413.272339 
	C580.600586,416.626343 579.283264,418.315094 575.330322,418.277588 
	C553.535461,418.070770 531.737061,418.113892 509.941162,418.257141 
	C506.362030,418.280640 504.457306,417.116089 503.432373,413.673096 
	C501.118134,405.899048 498.544281,398.202301 495.588074,388.946198 
	C523.125732,388.946198 549.759521,388.946198 576.871887,388.950958 
z"/>
<path fill="#000000" opacity="1.000000" stroke="none" 
	d="
M558.094788,716.624939 
	C566.067993,714.581970 573.233521,716.777222 576.745544,722.131226 
	C580.674683,728.121094 579.720642,734.667908 573.884766,741.761780 
	C569.760498,746.775269 569.760498,746.775269 575.081848,750.944153 
	C576.895081,750.544983 577.514099,748.828186 578.465820,747.564270 
	C580.612183,744.714050 583.085876,745.460938 585.531738,746.807068 
	C587.997375,748.164062 588.795837,750.651733 587.132812,752.714722 
	C582.659302,758.264038 583.375244,763.051331 588.153442,767.901306 
	C589.623596,769.393494 589.915100,771.563660 588.553406,773.422729 
	C587.222412,775.239868 585.365723,776.278381 583.004639,776.268555 
	C581.109009,776.260681 579.784546,775.111694 578.904297,773.769104 
	C576.617188,770.280457 574.512878,770.744934 571.229797,772.814819 
	C561.672302,778.840332 543.909607,775.661255 542.323792,760.506836 
	C541.753113,755.053223 543.626892,750.555176 547.916321,747.416199 
	C552.003052,744.425659 552.591309,741.712891 550.127930,737.037415 
	C545.545898,728.340698 548.822083,720.450073 558.094788,716.624939 
M555.390076,762.285339 
	C558.812988,765.223938 564.123657,765.716064 566.427246,762.860596 
	C569.291748,759.309692 565.096313,757.819580 563.651428,755.676208 
	C562.197815,753.520142 560.413696,751.137512 557.269104,753.595886 
	C554.528442,755.738525 551.959351,757.922852 555.390076,762.285339 
M565.366089,735.597900 
	C567.933899,733.406189 568.882996,730.777466 566.923767,727.802734 
	C565.691833,725.932251 563.619446,725.626038 561.649109,726.534058 
	C559.822266,727.375977 557.925659,728.750671 558.873474,731.039490 
	C559.909119,733.540649 560.487976,737.136841 565.366089,735.597900 
z"/>
<path fill="#000000" opacity="1.000000" stroke="none" 
	d="
M515.065979,449.802887 
	C514.180847,445.553497 512.074768,442.016846 511.878601,437.308716 
	C533.321472,437.308716 554.527771,437.308716 576.354126,437.308716 
	C574.293762,446.468964 572.303528,455.150269 570.409546,463.852539 
	C569.922607,466.089722 568.374573,466.131104 566.647400,466.130859 
	C552.517334,466.129028 538.387085,466.100769 524.257385,466.174255 
	C521.528687,466.188416 519.953796,465.200500 519.177979,462.511017 
	C517.981750,458.363892 516.532104,454.289856 515.065979,449.802887 
z"/>
<path fill="#000000" opacity="1.000000" stroke="none" 
	d="
M608.070435,418.186646 
	C607.248962,418.194733 606.916199,418.201813 606.583496,418.201355 
	C598.368408,418.190613 598.296509,418.176483 599.819519,410.319733 
	C600.956360,404.454895 602.473328,398.660370 603.491333,392.777466 
	C603.943237,390.166229 604.972168,388.890869 607.607971,388.885254 
	C616.757080,388.865753 625.906128,388.805542 635.055237,388.791962 
	C637.732971,388.787994 638.561340,390.068634 637.761047,392.658447 
	C635.455994,400.118439 633.216309,407.598999 631.005920,415.087708 
	C630.242371,417.674591 628.423828,418.177734 626.026855,418.150482 
	C620.205200,418.084320 614.381897,418.162231 608.070435,418.186646 
z"/>
<path fill="#000000" opacity="1.000000" stroke="none" 
	d="
M614.979370,463.984619 
	C614.014282,465.958496 612.579224,466.167938 611.015015,466.165283 
	C604.696472,466.154480 598.377258,466.108551 592.059692,466.189423 
	C589.151306,466.226624 588.105835,464.954681 588.746582,462.195099 
	C590.473145,454.758942 592.200134,447.322815 593.964783,439.895691 
	C594.369568,438.191956 595.141479,436.753876 597.240845,436.754333 
	C605.675842,436.756134 614.110779,436.755096 623.405090,436.755096 
	C620.475952,446.259979 617.805725,454.924622 614.979370,463.984619 
z"/>
<path fill="#000000" opacity="1.000000" stroke="none" 
	d="
M272.658447,327.919220 
	C277.866394,321.808472 285.775543,320.705200 290.896423,325.059784 
	C295.474915,328.953125 295.916595,337.091339 291.798462,341.679871 
	C288.224762,345.661774 281.369690,346.700409 276.721558,343.964233 
	C271.616150,340.958832 269.985992,334.929871 272.658447,327.919220 
z"/>
<path fill="#000000" opacity="1.000000" stroke="none" 
	d="
M272.423035,387.281616 
	C268.043701,377.798645 272.568420,369.834320 281.479004,370.766602 
	C285.294891,371.165863 288.631042,372.841431 290.048615,376.698090 
	C291.455017,380.524200 291.212799,384.336914 288.144592,387.382538 
	C285.150726,390.354431 281.678619,392.003204 277.291412,390.443054 
	C275.518127,389.812469 273.938629,388.997894 272.423035,387.281616 
z"/>
<path fill="#000000" opacity="1.000000" stroke="none" 
	d="
M268.401611,446.649475 
	C269.695618,446.256805 270.647034,446.123932 271.998138,446.999542 
	C269.296997,449.224304 266.007935,451.002167 266.659485,455.079071 
	C267.236725,458.690979 270.281189,460.410767 272.701080,462.633942 
	C268.639252,464.928467 264.801117,463.660004 262.686981,459.444092 
	C260.027252,454.140198 261.923309,449.672272 268.401611,446.649475 
z"/>
<path fill="#000000" opacity="1.000000" stroke="none" 
	d="
M615.987732,570.590515 
	C613.609924,577.065918 610.749756,579.396362 605.576233,579.295654 
	C601.099182,579.208496 598.069702,576.964417 596.432861,572.854675 
	C594.328918,567.572144 596.519287,562.193481 601.595703,560.018372 
	C606.941589,557.727783 612.729675,559.780945 615.080261,564.889343 
	C615.842163,566.545105 616.405090,568.306091 615.987732,570.590515 
z"/>
<path fill="#000000" opacity="1.000000" stroke="none" 
	d="
M494.077209,578.620544 
	C488.689819,580.146973 484.472900,579.207581 481.731934,574.452454 
	C479.571411,570.704407 480.272217,564.732239 483.172821,562.007263 
	C486.343445,559.028625 490.059875,558.142273 494.158081,559.791321 
	C497.852997,561.278137 499.941650,564.080322 500.284210,568.086792 
	C500.691589,572.851807 499.126709,576.533142 494.077209,578.620544 
z"/>
</svg>